<svg width="157" height="48" viewBox="0 0 157 48" fill="none" xmlns="http://www.w3.org/2000/svg">
<g filter="url(#filter0_d_3_1721)">
<mask id="path-1-inside-1_3_1721" fill="white">
<path d="M45.1992 30.6092C47.0609 26.7867 47.4974 22.3723 46.4234 18.2297C45.3493 14.0871 42.842 10.5143 39.3919 8.21031C35.9418 5.90631 31.7972 5.03686 27.7689 5.77206C23.7406 6.50727 20.1184 8.79423 17.611 12.1855C15.1036 15.5768 13.8914 19.8285 14.2116 24.1087C14.5317 28.3889 16.3611 32.3897 19.342 35.3283C22.3228 38.267 26.2406 39.9321 30.3288 39.998C34.4171 40.0638 38.3816 38.5256 41.4469 35.6842L33.302 25.9958C32.5343 26.7074 31.5414 27.0927 30.5175 27.0762C29.4936 27.0597 28.5125 26.6427 27.7659 25.9067C27.0194 25.1707 26.5612 24.1687 26.481 23.0968C26.4009 22.0248 26.7044 20.96 27.3324 20.1107C27.9604 19.2614 28.8675 18.6886 29.8764 18.5045C30.8853 18.3203 31.9233 18.5381 32.7873 19.1151C33.6514 19.6921 34.2793 20.5869 34.5483 21.6244C34.8173 22.6619 -33.1267 35.3284 32.7873 0L45.1992 30.6092Z"/>
</mask>
<path d="M45.1992 30.6092C47.0609 26.7867 47.4974 22.3723 46.4234 18.2297C45.3493 14.0871 42.842 10.5143 39.3919 8.21031C35.9418 5.90631 31.7972 5.03686 27.7689 5.77206C23.7406 6.50727 20.1184 8.79423 17.611 12.1855C15.1036 15.5768 13.8914 19.8285 14.2116 24.1087C14.5317 28.3889 16.3611 32.3897 19.342 35.3283C22.3228 38.267 26.2406 39.9321 30.3288 39.998C34.4171 40.0638 38.3816 38.5256 41.4469 35.6842L33.302 25.9958C32.5343 26.7074 31.5414 27.0927 30.5175 27.0762C29.4936 27.0597 28.5125 26.6427 27.7659 25.9067C27.0194 25.1707 26.5612 24.1687 26.481 23.0968C26.4009 22.0248 26.7044 20.96 27.3324 20.1107C27.9604 19.2614 28.8675 18.6886 29.8764 18.5045C30.8853 18.3203 31.9233 18.5381 32.7873 19.1151C33.6514 19.6921 34.2793 20.5869 34.5483 21.6244C34.8173 22.6619 -33.1267 35.3284 32.7873 0L45.1992 30.6092Z" fill="#D9D9D9"/>
<path d="M45.1992 30.6092L34.0786 35.1185L44.1971 60.072L55.9876 35.8636L45.1992 30.6092ZM41.4469 35.6842L49.6046 44.4849L57.9889 36.7131L50.6322 27.9623L41.4469 35.6842ZM33.302 25.9958L42.4873 18.2739L34.3819 8.63235L25.1442 17.1952L33.302 25.9958ZM32.7873 0L43.9079 -4.5093L38.8894 -16.8855L27.1185 -10.5766L32.7873 0ZM55.9876 35.8636C59.1095 29.4537 59.8253 22.1068 58.0393 15.2181L34.8074 21.2413C35.1695 22.6378 35.0122 24.1196 34.4107 25.3547L55.9876 35.8636ZM58.0393 15.2181C56.2516 8.32272 52.0398 2.22687 46.0562 -1.76902L32.7276 18.1896C33.6442 18.8018 34.4471 19.8515 34.8074 21.2413L58.0393 15.2181ZM46.0562 -1.76902C40.0531 -5.77798 32.7526 -7.33573 25.6144 -6.03294L29.9234 17.5771C30.8418 17.4094 31.8306 17.5906 32.7276 18.1896L46.0562 -1.76902ZM25.6144 -6.03294C18.4868 -4.73209 12.2228 -0.711462 7.96195 5.05142L27.2601 19.3196C28.014 18.2999 28.9943 17.7466 29.9234 17.5771L25.6144 -6.03294ZM7.96195 5.05142C3.71208 10.7995 1.71453 17.9116 2.245 25.0037L26.1781 23.2136C26.0683 21.7454 26.4952 20.3542 27.2601 19.3196L7.96195 5.05142ZM2.245 25.0037C2.7756 32.0978 5.81254 38.8412 10.9174 43.8738L27.7666 26.7828C26.9098 25.9381 26.2878 24.6799 26.1781 23.2136L2.245 25.0037ZM10.9174 43.8738C16.0379 48.9219 22.8811 51.8796 30.1357 51.9964L30.522 27.9995C29.6001 27.9847 28.6078 27.6121 27.7666 26.7828L10.9174 43.8738ZM30.1357 51.9964C37.3912 52.1132 44.3277 49.3763 49.6046 44.4849L33.2891 26.8836C32.4355 27.6749 31.443 28.0144 30.522 27.9995L30.1357 51.9964ZM50.6322 27.9623L42.4873 18.2739L24.1166 33.7178L32.2615 43.4062L50.6322 27.9623ZM25.1442 17.1952C26.5882 15.8568 28.5673 15.0432 30.7107 15.0778L30.3243 39.0746C34.5155 39.1421 38.4804 37.5581 41.4597 34.7965L25.1442 17.1952ZM30.7107 15.0778C32.8531 15.1122 34.7974 15.9878 36.1906 17.3612L19.3413 34.4522C22.2275 37.2976 26.1342 39.0072 30.3243 39.0746L30.7107 15.0778ZM36.1906 17.3612C37.568 18.7192 38.3173 20.4598 38.4476 22.2017L14.5145 23.9918C14.8051 27.8777 16.4708 31.6223 19.3413 34.4522L36.1906 17.3612ZM38.4476 22.2017C38.5777 23.9417 38.096 25.7374 36.9815 27.2448L17.6833 12.9766C15.3129 16.1827 14.224 20.1079 14.5145 23.9918L38.4476 22.2017ZM36.9815 27.2448C35.856 28.767 34.1213 29.928 32.0309 30.3095L27.7219 6.69947C23.6138 7.44923 20.0648 9.75566 17.6833 12.9766L36.9815 27.2448ZM32.0309 30.3095C29.9299 30.6929 27.812 30.2224 26.123 29.0945L39.4516 9.13578C36.0345 6.85381 31.8406 5.94775 27.7219 6.69947L32.0309 30.3095ZM26.123 29.0945C24.4536 27.9796 23.3771 26.3513 22.9324 24.636L46.1643 18.6128C45.1816 14.8226 42.8492 11.4047 39.4516 9.13578L26.123 29.0945ZM22.9324 24.636C21.819 20.3415 23.3362 16.8846 24.4597 15.1437C25.5144 13.5095 26.7117 12.5394 27.2234 12.1482C28.3047 11.3216 29.2636 10.8971 29.4616 10.8081C29.815 10.6493 30.0802 10.5542 30.1789 10.5195C30.2982 10.4776 30.37 10.456 30.3756 10.4543C30.3827 10.4521 30.2914 10.4794 30.0737 10.534C29.867 10.5858 29.5945 10.6502 29.2556 10.7252C27.8691 11.0317 25.7785 11.4243 23.3679 11.7796C18.1689 12.5458 13.1738 12.8806 10.5805 12.5473C10.0303 12.4766 10.0682 12.4285 10.4662 12.5792C10.7516 12.6873 12.3897 13.3237 13.8851 15.227C15.7345 17.5807 16.2983 20.5022 15.8566 22.9827C15.6719 24.0199 15.3529 24.7609 15.149 25.1639C15.0426 25.374 14.9507 25.5256 14.8914 25.6176C14.8317 25.71 14.7954 25.757 14.7946 25.758C14.7935 25.7595 14.8197 25.7255 14.8813 25.6559C14.9427 25.5866 15.0329 25.4891 15.1577 25.3632C15.4105 25.1079 15.7734 24.7678 16.2749 24.341C17.2882 23.4784 18.7266 22.3807 20.7065 21.0317C24.6775 18.3259 30.4221 14.8827 38.4561 10.5766L27.1185 -10.5766C18.6741 -6.05059 12.1232 -2.16159 7.19252 1.19802C2.48313 4.40683 -1.56259 7.66889 -4.20896 11.0998C-5.53831 12.8232 -7.1749 15.4236 -7.77173 18.7752C-8.46171 22.6499 -7.59378 26.7364 -4.9865 30.0547C-2.73317 32.9226 0.116593 34.3233 1.96871 35.0245C3.93347 35.7684 5.8933 36.1423 7.52136 36.3515C13.6412 37.138 21.462 36.3197 26.8671 35.5231C29.7585 35.097 32.417 34.6058 34.4372 34.1591C35.4094 33.9442 36.4312 33.6964 37.3219 33.4271C37.6929 33.3149 38.4625 33.0752 39.2981 32.6998C39.6148 32.5575 40.6621 32.0845 41.8001 31.2145C42.3401 30.8016 43.5578 29.8112 44.6248 28.158C45.7605 26.3981 47.2819 22.9236 46.1643 18.6128L22.9324 24.636ZM21.6668 4.5093L34.0786 35.1185L56.3197 26.0999L43.9079 -4.5093L21.6668 4.5093Z" fill="url(#paint0_linear_3_1721)" mask="url(#path-1-inside-1_3_1721)"/>
</g>
<path fill-rule="evenodd" clip-rule="evenodd" d="M55.6069 14.0347V27.7358H57.777V22.5864H60.5908C61.5103 22.5864 62.3195 22.4147 63.0184 22.0714C63.7172 21.7281 64.2628 21.2377 64.6552 20.6002C65.0598 19.9626 65.2621 19.2025 65.2621 18.3197C65.2621 17.4247 65.0659 16.6584 64.6736 16.0209C64.2812 15.3711 63.7295 14.8806 63.0184 14.5496C62.3195 14.2063 61.5103 14.0347 60.5908 14.0347H55.6069ZM60.646 20.6553H57.777V15.9657H60.646C61.1364 15.9657 61.5655 16.0638 61.9333 16.2599C62.3011 16.4439 62.5893 16.7136 62.7977 17.0691C63.0061 17.4124 63.1103 17.8232 63.1103 18.3013C63.1103 18.7795 63.0061 19.1963 62.7977 19.5519C62.5893 19.8952 62.3011 20.1649 61.9333 20.3611C61.5655 20.5573 61.1364 20.6553 60.646 20.6553ZM66.9445 14.0347V27.7358H75.9744V25.8048H69.1147V21.8324H75.6066V19.9013H69.1147V15.9657H75.9744V14.0347H66.9445ZM77.4381 14.0347V27.7358H79.6082V22.5864H82.2811L85.1806 27.7358H87.645L84.4818 22.2186C85.2787 21.912 85.9101 21.4216 86.376 20.7473C86.8542 20.073 87.0933 19.2638 87.0933 18.3197C87.0933 17.4247 86.8909 16.6584 86.4864 16.0209C86.094 15.3711 85.5484 14.8806 84.8496 14.5496C84.1507 14.2063 83.3415 14.0347 82.422 14.0347H77.4381ZM82.4588 20.6553H79.6082V15.9657H82.4588C82.9614 15.9657 83.3967 16.0638 83.7645 16.2599C84.1323 16.4439 84.4143 16.7136 84.6105 17.0691C84.8189 17.4124 84.9231 17.8232 84.9231 18.3013C84.9231 18.7795 84.8189 19.1963 84.6105 19.5519C84.4143 19.8952 84.1323 20.1649 83.7645 20.3611C83.3967 20.5573 82.9614 20.6553 82.4588 20.6553ZM88.9194 14.0347V27.7358H91.0895V22.5864H93.9033C94.8228 22.5864 95.632 22.4147 96.3309 22.0714C97.0297 21.7281 97.5753 21.2377 97.9677 20.6002C98.3723 19.9626 98.5746 19.2025 98.5746 18.3197C98.5746 17.4247 98.3784 16.6584 97.9861 16.0209C97.5937 15.3711 97.042 14.8806 96.3309 14.5496C95.632 14.2063 94.8228 14.0347 93.9033 14.0347H88.9194ZM93.9585 20.6553H91.0895V15.9657H93.9585C94.4489 15.9657 94.878 16.0638 95.2458 16.2599C95.6136 16.4439 95.9018 16.7136 96.1102 17.0691C96.3186 17.4124 96.4228 17.8232 96.4228 18.3013C96.4228 18.7795 96.3186 19.1963 96.1102 19.5519C95.9018 19.8952 95.6136 20.1649 95.2458 20.3611C94.878 20.5573 94.4489 20.6553 93.9585 20.6553ZM102.666 27.3128C103.463 27.7419 104.37 27.9565 105.388 27.9565C106.418 27.9565 107.325 27.7419 108.11 27.3128C108.907 26.8837 109.526 26.2952 109.967 25.5473C110.409 24.7994 110.629 23.9473 110.629 22.991V14.0347H108.478V22.899C108.478 23.4998 108.343 24.0331 108.073 24.499C107.816 24.9649 107.454 25.3266 106.988 25.5841C106.534 25.8416 106.001 25.9703 105.388 25.9703C104.787 25.9703 104.254 25.8416 103.788 25.5841C103.334 25.3266 102.973 24.9649 102.703 24.499C102.446 24.0331 102.317 23.4998 102.317 22.899V14.0347H100.147V22.991C100.147 23.9473 100.367 24.7994 100.809 25.5473C101.262 26.2952 101.882 26.8837 102.666 27.3128ZM115.207 27.4783C115.943 27.7971 116.74 27.9565 117.598 27.9565C118.518 27.9565 119.327 27.791 120.026 27.4599C120.724 27.1166 121.27 26.6507 121.662 26.0622C122.067 25.4737 122.269 24.7994 122.269 24.0393C122.269 23.1197 121.993 22.3534 121.442 21.7404C120.89 21.1151 120.068 20.637 118.977 20.3059L116.586 19.5519C116.01 19.3802 115.581 19.1228 115.299 18.7795C115.017 18.4362 114.876 18.0438 114.876 17.6025C114.876 17.2224 114.968 16.8914 115.152 16.6094C115.348 16.3151 115.618 16.0944 115.961 15.9473C116.305 15.7879 116.703 15.7082 117.157 15.7082C117.904 15.7082 118.56 15.9044 119.124 16.2967C119.701 16.6891 120.124 17.2469 120.393 17.9703L122.196 17.1795C121.975 16.5174 121.619 15.935 121.129 15.4324C120.651 14.9297 120.075 14.5373 119.4 14.2553C118.726 13.9611 117.978 13.814 117.157 13.814C116.298 13.814 115.532 13.9795 114.858 14.3105C114.196 14.6416 113.675 15.1013 113.295 15.6898C112.914 16.2661 112.724 16.9404 112.724 17.7128C112.724 18.5956 112.994 19.368 113.534 20.0301C114.073 20.6799 114.858 21.1642 115.888 21.4829L118.462 22.2921C119.014 22.4638 119.431 22.6967 119.713 22.991C119.995 23.2852 120.136 23.6837 120.136 24.1864C120.136 24.5542 120.032 24.8791 119.823 25.1611C119.627 25.4431 119.345 25.6638 118.977 25.8232C118.609 25.9703 118.18 26.0438 117.69 26.0438C116.856 26.0438 116.121 25.817 115.483 25.3634C114.845 24.9098 114.361 24.2599 114.03 23.414L112.191 24.1864C112.436 24.922 112.816 25.5718 113.331 26.1358C113.846 26.6998 114.472 27.1473 115.207 27.4783ZM124.154 14.0347V27.7358H132.246V25.8048H126.324V14.0347H124.154ZM137.12 14.0347L132.302 27.7358H134.619L135.686 24.6645H141.258L142.306 27.7358H144.624L139.805 14.0347H137.12ZM140.596 22.7335H136.311L138.47 16.4509L140.596 22.7335ZM145.697 14.0347V27.7358H151.491C152.95 27.7358 154.096 27.368 154.93 26.6324C155.776 25.8967 156.199 24.8852 156.199 23.5979C156.199 23.0829 156.107 22.5925 155.923 22.1266C155.751 21.6607 155.469 21.2439 155.077 20.876C154.88 20.6858 154.655 20.5125 154.4 20.3561C154.695 20.1271 154.933 19.8652 155.114 19.5703C155.457 19.0186 155.628 18.4117 155.628 17.7496C155.628 16.9894 155.463 16.3335 155.132 15.7818C154.801 15.2178 154.323 14.7887 153.697 14.4944C153.072 14.1879 152.33 14.0347 151.472 14.0347H145.697ZM151.656 25.8048H147.868V21.4094H151.656C152.379 21.4094 152.956 21.6117 153.385 22.0163C153.814 22.4086 154.028 22.9419 154.028 23.6163C154.028 24.2783 153.814 24.8117 153.385 25.2163C152.956 25.6086 152.379 25.8048 151.656 25.8048ZM151.527 19.4967H147.868V15.9105H151.527C152.116 15.9105 152.588 16.0638 152.943 16.3703C153.299 16.6768 153.477 17.1059 153.477 17.6576C153.477 18.2094 153.299 18.6569 152.943 19.0002C152.588 19.3312 152.116 19.4967 151.527 19.4967ZM55 31.8048V38.6553H55.7356V33.2115L59.5057 38.6553H60.1494V31.8048H59.4138V37.2141L55.6437 31.8048H55ZM62.203 38.5266C62.485 38.686 62.7977 38.7657 63.1409 38.7657C63.5088 38.7657 63.8337 38.6737 64.1157 38.4898C64.297 38.3716 64.4441 38.2254 64.557 38.0513V38.6553H65.2467V33.7266H64.557V36.6599C64.557 36.9542 64.5019 37.2086 64.3915 37.4232C64.2812 37.6316 64.1279 37.794 63.9318 37.9105C63.7356 38.0209 63.5118 38.076 63.2605 38.076C63.0091 38.076 62.7854 38.0209 62.5892 37.9105C62.3992 37.8002 62.249 37.6469 62.1386 37.4507C62.0344 37.2484 61.9823 37.0155 61.9823 36.7519V33.7266H61.2927V36.8347C61.2927 37.2147 61.3724 37.5519 61.5318 37.8461C61.6973 38.1343 61.921 38.3611 62.203 38.5266ZM66.8581 38.4071C67.2137 38.6461 67.6275 38.7657 68.0995 38.7657C68.4428 38.7657 68.7462 38.7075 69.0098 38.591C69.2734 38.4684 69.4788 38.2998 69.6259 38.0852C69.7792 37.8707 69.8558 37.6285 69.8558 37.3588C69.8558 37.0278 69.7424 36.7396 69.5156 36.4944C69.2949 36.2492 68.9853 36.0684 68.5869 35.9519L67.7685 35.7128C67.6826 35.6883 67.5815 35.6515 67.465 35.6025C67.3547 35.5534 67.2566 35.4799 67.1708 35.3818C67.0849 35.2837 67.042 35.1519 67.042 34.9864C67.042 34.7718 67.1248 34.594 67.2903 34.453C67.4558 34.312 67.6765 34.2416 67.9524 34.2416C68.2344 34.2416 68.4888 34.3212 68.7156 34.4806C68.9485 34.6339 69.1263 34.8484 69.2489 35.1243L69.8374 34.8484C69.6964 34.4622 69.4543 34.1619 69.111 33.9473C68.7738 33.7266 68.3968 33.6163 67.98 33.6163C67.6734 33.6163 67.3945 33.6745 67.1432 33.791C66.8918 33.9074 66.6926 34.073 66.5455 34.2875C66.3983 34.5021 66.3248 34.7534 66.3248 35.0416C66.3248 35.3481 66.4259 35.6178 66.6282 35.8507C66.8305 36.0837 67.1585 36.2645 67.6121 36.3933L68.3202 36.5956C68.4183 36.6201 68.5317 36.6599 68.6604 36.7151C68.7892 36.7703 68.9026 36.85 69.0006 36.9542C69.0987 37.0523 69.1478 37.1871 69.1478 37.3588C69.1478 37.5917 69.0466 37.7818 68.8443 37.9289C68.642 38.0699 68.3938 38.1404 68.0995 38.1404C67.793 38.1404 67.511 38.0515 67.2535 37.8737C67.0022 37.696 66.806 37.4569 66.665 37.1565L66.0857 37.4324C66.2451 37.8431 66.5026 38.168 66.8581 38.4071ZM71.3803 38.591C71.6255 38.7075 71.9045 38.7657 72.2171 38.7657C72.5052 38.7657 72.7688 38.7228 73.0079 38.637C73.2531 38.545 73.4646 38.4255 73.6424 38.2783C73.7655 38.1757 73.8667 38.0662 73.9458 37.9499V38.6553H74.6355V35.2714C74.6355 34.9465 74.5558 34.6615 74.3964 34.4163C74.2432 34.1649 74.0255 33.9688 73.7435 33.8278C73.4677 33.6868 73.1489 33.6163 72.7872 33.6163C72.5114 33.6163 72.2447 33.6684 71.9872 33.7726C71.7297 33.8707 71.4999 34.0055 71.2976 34.1772C71.1014 34.3488 70.9573 34.5389 70.8654 34.7473L71.4907 35.0875C71.601 34.8484 71.7696 34.6553 71.9964 34.5082C72.2232 34.355 72.4868 34.2783 72.7872 34.2783C73.1305 34.2783 73.4094 34.3703 73.624 34.5542C73.8386 34.7381 73.9458 34.9772 73.9458 35.2714V35.5258L72.1619 35.8232C71.8002 35.8845 71.5029 35.9887 71.27 36.1358C71.037 36.2829 70.8654 36.4638 70.755 36.6783C70.6447 36.8868 70.5895 37.1197 70.5895 37.3772C70.5895 37.6469 70.66 37.886 70.801 38.0944C70.942 38.3029 71.1351 38.4684 71.3803 38.591ZM73.9458 36.1511V36.522C73.9458 36.8224 73.8753 37.0952 73.7343 37.3404C73.5933 37.5856 73.3972 37.7818 73.1458 37.9289C72.8945 38.0699 72.6002 38.1404 72.2631 38.1404C71.9872 38.1404 71.7604 38.0638 71.5826 37.9105C71.411 37.7573 71.3251 37.5703 71.3251 37.3496C71.3251 37.1228 71.4018 36.9266 71.555 36.7611C71.7144 36.5956 71.9719 36.4822 72.3274 36.4209L73.9458 36.1511ZM75.7782 33.7266V38.6553H76.4678V35.722C76.4678 35.4278 76.523 35.1764 76.6333 34.968C76.7437 34.7534 76.8969 34.591 77.0931 34.4806C77.2893 34.3642 77.513 34.3059 77.7644 34.3059C78.0157 34.3059 78.2364 34.3642 78.4264 34.4806C78.6226 34.591 78.7728 34.7504 78.877 34.9588C78.9874 35.1672 79.0425 35.4216 79.0425 35.722V38.6553H79.7322V35.4553C79.7322 35.1059 79.6494 34.7933 79.4839 34.5174C79.3245 34.2354 79.1038 34.0147 78.8218 33.8553C78.546 33.696 78.2333 33.6163 77.8839 33.6163C77.5161 33.6163 77.1912 33.7082 76.9092 33.8921C76.7296 34.0119 76.5825 34.1602 76.4678 34.3371V33.7266H75.7782ZM81.6379 38.3243C81.8769 38.5818 82.2172 38.7105 82.6585 38.7105C82.7137 38.7105 82.7873 38.7044 82.8792 38.6921C82.9712 38.686 83.0539 38.6737 83.1275 38.6553V38.0393C83.0785 38.0454 83.0202 38.0515 82.9528 38.0576C82.8854 38.0638 82.8271 38.0668 82.7781 38.0668C82.5758 38.0668 82.4133 38.0301 82.2907 37.9565C82.1743 37.8829 82.0915 37.7848 82.0425 37.6622C81.9934 37.5335 81.9689 37.3864 81.9689 37.2209V34.4163H83.0539V33.7266H81.9689V32.5864H81.2792V33.0002C81.2792 33.2086 81.2179 33.3833 81.0953 33.5243C80.9727 33.6592 80.8072 33.7266 80.5988 33.7266H80.3689V34.4163H81.2792V37.2209C81.2792 37.699 81.3988 38.0668 81.6379 38.3243ZM84.5613 38.591C84.8066 38.7075 85.0855 38.7657 85.3981 38.7657C85.6863 38.7657 85.9499 38.7228 86.1889 38.637C86.4341 38.545 86.6456 38.4255 86.8234 38.2783C86.9466 38.1757 87.0477 38.0662 87.1269 37.9499V38.6553H87.8165V35.2714C87.8165 34.9465 87.7368 34.6615 87.5774 34.4163C87.4242 34.1649 87.2066 33.9688 86.9246 33.8278C86.6487 33.6868 86.3299 33.6163 85.9682 33.6163C85.6924 33.6163 85.4257 33.6684 85.1682 33.7726C84.9108 33.8707 84.6809 34.0055 84.4786 34.1772C84.2824 34.3488 84.1384 34.5389 84.0464 34.7473L84.6717 35.0875C84.782 34.8484 84.9506 34.6553 85.1774 34.5082C85.4043 34.355 85.6679 34.2783 85.9682 34.2783C86.3115 34.2783 86.5905 34.3703 86.805 34.5542C87.0196 34.7381 87.1269 34.9772 87.1269 35.2714V35.5258L85.343 35.8232C84.9813 35.8845 84.684 35.9887 84.451 36.1358C84.2181 36.2829 84.0464 36.4638 83.9361 36.6783C83.8257 36.8868 83.7705 37.1197 83.7705 37.3772C83.7705 37.6469 83.841 37.886 83.982 38.0944C84.123 38.3029 84.3161 38.4684 84.5613 38.591ZM87.1269 36.1511V36.522C87.1269 36.8224 87.0564 37.0952 86.9154 37.3404C86.7744 37.5856 86.5782 37.7818 86.3269 37.9289C86.0755 38.0699 85.7813 38.1404 85.4441 38.1404C85.1682 38.1404 84.9414 38.0638 84.7636 37.9105C84.592 37.7573 84.5062 37.5703 84.5062 37.3496C84.5062 37.1228 84.5828 36.9266 84.7361 36.7611C84.8954 36.5956 85.1529 36.4822 85.5085 36.4209L87.1269 36.1511ZM88.9592 33.7266V38.6553H89.6488V35.6209C89.6488 35.2163 89.7561 34.9036 89.9707 34.6829C90.1852 34.4622 90.4703 34.3519 90.8259 34.3519H91.258V33.6622H90.9454C90.6082 33.6622 90.3201 33.7297 90.081 33.8645C89.9029 33.9677 89.7589 34.0994 89.6488 34.2599V33.7266H88.9592ZM92.3789 38.591C92.6241 38.7075 92.903 38.7657 93.2157 38.7657C93.5038 38.7657 93.7674 38.7228 94.0065 38.637C94.2517 38.545 94.4632 38.4255 94.6409 38.2783C94.7641 38.1757 94.8652 38.0662 94.9444 37.9499V38.6553H95.6341V35.2714C95.6341 34.9465 95.5544 34.6615 95.395 34.4163C95.2417 34.1649 95.0241 33.9688 94.7421 33.8278C94.4662 33.6868 94.1475 33.6163 93.7858 33.6163C93.5099 33.6163 93.2432 33.6684 92.9858 33.7726C92.7283 33.8707 92.4984 34.0055 92.2961 34.1772C92.1 34.3488 91.9559 34.5389 91.8639 34.7473L92.4892 35.0875C92.5996 34.8484 92.7682 34.6553 92.995 34.5082C93.2218 34.355 93.4854 34.2783 93.7858 34.2783C94.1291 34.2783 94.408 34.3703 94.6226 34.5542C94.8371 34.7381 94.9444 34.9772 94.9444 35.2714V35.5258L93.1605 35.8232C92.7988 35.8845 92.5015 35.9887 92.2685 36.1358C92.0356 36.2829 91.8639 36.4638 91.7536 36.6783C91.6432 36.8868 91.5881 37.1197 91.5881 37.3772C91.5881 37.6469 91.6586 37.886 91.7996 38.0944C91.9406 38.3029 92.1337 38.4684 92.3789 38.591ZM94.9444 36.1511V36.522C94.9444 36.8224 94.8739 37.0952 94.7329 37.3404C94.5919 37.5856 94.3957 37.7818 94.1444 37.9289C93.8931 38.0699 93.5988 38.1404 93.2616 38.1404C92.9858 38.1404 92.759 38.0638 92.5812 37.9105C92.4095 37.7573 92.3237 37.5703 92.3237 37.3496C92.3237 37.1228 92.4003 36.9266 92.5536 36.7611C92.713 36.5956 92.9705 36.4822 93.326 36.4209L94.9444 36.1511Z" fill="url(#paint1_linear_3_1721)"/>
<defs>
<filter id="filter0_d_3_1721" x="0" y="0" width="51" height="48" filterUnits="userSpaceOnUse" color-interpolation-filters="sRGB">
<feFlood flood-opacity="0" result="BackgroundImageFix"/>
<feColorMatrix in="SourceAlpha" type="matrix" values="0 0 0 0 0 0 0 0 0 0 0 0 0 0 0 0 0 0 127 0" result="hardAlpha"/>
<feOffset dy="4"/>
<feGaussianBlur stdDeviation="2"/>
<feComposite in2="hardAlpha" operator="out"/>
<feColorMatrix type="matrix" values="0 0 0 0 0 0 0 0 0 0 0 0 0 0 0 0 0 0 0.25 0"/>
<feBlend mode="normal" in2="BackgroundImageFix" result="effect1_dropShadow_3_1721"/>
<feBlend mode="normal" in="SourceGraphic" in2="effect1_dropShadow_3_1721" result="shape"/>
</filter>
<linearGradient id="paint0_linear_3_1721" x1="30.5806" y1="5.51714" x2="30.5806" y2="39.9997" gradientUnits="userSpaceOnUse">
<stop stop-color="#E63946"/>
<stop offset="1" stop-color="#1D3557"/>
</linearGradient>
<linearGradient id="paint1_linear_3_1721" x1="50.1678" y1="41.529" x2="156.199" y2="26.2898" gradientUnits="userSpaceOnUse">
<stop stop-color="#D9D9D9"/>
<stop offset="0.272" stop-color="#1D3557"/>
<stop offset="0.94" stop-color="#E63946"/>
</linearGradient>
</defs>
</svg>
