<svg width="51" height="48" viewBox="0 0 51 48" fill="none" xmlns="http://www.w3.org/2000/svg">
<g filter="url(#filter0_d_3_939)">
<mask id="path-1-inside-1_3_939" fill="white">
<path d="M45.1992 30.6092C47.0609 26.7867 47.4974 22.3723 46.4234 18.2297C45.3493 14.0871 42.842 10.5143 39.3919 8.21031C35.9418 5.90631 31.7972 5.03686 27.7689 5.77206C23.7406 6.50727 20.1184 8.79423 17.611 12.1855C15.1036 15.5768 13.8914 19.8285 14.2116 24.1087C14.5317 28.3889 16.3611 32.3897 19.342 35.3283C22.3228 38.267 26.2406 39.9321 30.3288 39.998C34.4171 40.0638 38.3816 38.5256 41.4469 35.6842L33.302 25.9958C32.5343 26.7074 31.5414 27.0927 30.5175 27.0762C29.4936 27.0597 28.5125 26.6427 27.7659 25.9067C27.0194 25.1707 26.5612 24.1687 26.481 23.0968C26.4009 22.0248 26.7044 20.96 27.3324 20.1107C27.9604 19.2614 28.8675 18.6886 29.8764 18.5045C30.8853 18.3203 31.9233 18.5381 32.7873 19.1151C33.6514 19.6921 34.2793 20.5869 34.5483 21.6244C34.8173 22.6619 -33.1267 35.3284 32.7873 0L45.1992 30.6092Z"/>
</mask>
<path d="M45.1992 30.6092C47.0609 26.7867 47.4974 22.3723 46.4234 18.2297C45.3493 14.0871 42.842 10.5143 39.3919 8.21031C35.9418 5.90631 31.7972 5.03686 27.7689 5.77206C23.7406 6.50727 20.1184 8.79423 17.611 12.1855C15.1036 15.5768 13.8914 19.8285 14.2116 24.1087C14.5317 28.3889 16.3611 32.3897 19.342 35.3283C22.3228 38.267 26.2406 39.9321 30.3288 39.998C34.4171 40.0638 38.3816 38.5256 41.4469 35.6842L33.302 25.9958C32.5343 26.7074 31.5414 27.0927 30.5175 27.0762C29.4936 27.0597 28.5125 26.6427 27.7659 25.9067C27.0194 25.1707 26.5612 24.1687 26.481 23.0968C26.4009 22.0248 26.7044 20.96 27.3324 20.1107C27.9604 19.2614 28.8675 18.6886 29.8764 18.5045C30.8853 18.3203 31.9233 18.5381 32.7873 19.1151C33.6514 19.6921 34.2793 20.5869 34.5483 21.6244C34.8173 22.6619 -33.1267 35.3284 32.7873 0L45.1992 30.6092Z" fill="#D9D9D9"/>
<path d="M45.1992 30.6092L34.0786 35.1185L44.1971 60.072L55.9876 35.8636L45.1992 30.6092ZM41.4469 35.6842L49.6046 44.4849L57.9889 36.7131L50.6322 27.9623L41.4469 35.6842ZM33.302 25.9958L42.4873 18.2739L34.3819 8.63235L25.1442 17.1952L33.302 25.9958ZM32.7873 0L43.9079 -4.5093L38.8894 -16.8855L27.1185 -10.5766L32.7873 0ZM55.9876 35.8636C59.1095 29.4537 59.8253 22.1068 58.0393 15.2181L34.8074 21.2413C35.1695 22.6378 35.0122 24.1196 34.4107 25.3547L55.9876 35.8636ZM58.0393 15.2181C56.2516 8.32272 52.0398 2.22687 46.0562 -1.76902L32.7276 18.1896C33.6442 18.8018 34.4471 19.8515 34.8074 21.2413L58.0393 15.2181ZM46.0562 -1.76902C40.0531 -5.77798 32.7526 -7.33573 25.6144 -6.03294L29.9234 17.5771C30.8418 17.4094 31.8306 17.5906 32.7276 18.1896L46.0562 -1.76902ZM25.6144 -6.03294C18.4868 -4.73209 12.2228 -0.711462 7.96195 5.05142L27.2601 19.3196C28.014 18.2999 28.9943 17.7466 29.9234 17.5771L25.6144 -6.03294ZM7.96195 5.05142C3.71208 10.7995 1.71453 17.9116 2.245 25.0037L26.1781 23.2136C26.0683 21.7454 26.4952 20.3542 27.2601 19.3196L7.96195 5.05142ZM2.245 25.0037C2.7756 32.0978 5.81254 38.8412 10.9174 43.8738L27.7666 26.7828C26.9098 25.9381 26.2878 24.6799 26.1781 23.2136L2.245 25.0037ZM10.9174 43.8738C16.0379 48.9219 22.8811 51.8796 30.1357 51.9964L30.522 27.9995C29.6001 27.9847 28.6078 27.6121 27.7666 26.7828L10.9174 43.8738ZM30.1357 51.9964C37.3912 52.1132 44.3277 49.3763 49.6046 44.4849L33.2891 26.8836C32.4355 27.6749 31.443 28.0144 30.522 27.9995L30.1357 51.9964ZM50.6322 27.9623L42.4873 18.2739L24.1166 33.7178L32.2615 43.4062L50.6322 27.9623ZM25.1442 17.1952C26.5882 15.8568 28.5673 15.0432 30.7107 15.0778L30.3243 39.0746C34.5155 39.1421 38.4804 37.5581 41.4597 34.7965L25.1442 17.1952ZM30.7107 15.0778C32.8531 15.1122 34.7974 15.9878 36.1906 17.3612L19.3413 34.4522C22.2275 37.2976 26.1342 39.0072 30.3243 39.0746L30.7107 15.0778ZM36.1906 17.3612C37.568 18.7192 38.3173 20.4598 38.4476 22.2017L14.5145 23.9918C14.8051 27.8777 16.4708 31.6223 19.3413 34.4522L36.1906 17.3612ZM38.4476 22.2017C38.5777 23.9417 38.096 25.7374 36.9815 27.2448L17.6833 12.9766C15.3129 16.1827 14.224 20.1079 14.5145 23.9918L38.4476 22.2017ZM36.9815 27.2448C35.856 28.767 34.1213 29.928 32.0309 30.3095L27.7219 6.69947C23.6138 7.44923 20.0648 9.75566 17.6833 12.9766L36.9815 27.2448ZM32.0309 30.3095C29.9299 30.6929 27.812 30.2224 26.123 29.0945L39.4516 9.13578C36.0345 6.85381 31.8406 5.94775 27.7219 6.69947L32.0309 30.3095ZM26.123 29.0945C24.4536 27.9796 23.3771 26.3513 22.9324 24.636L46.1643 18.6128C45.1816 14.8226 42.8492 11.4047 39.4516 9.13578L26.123 29.0945ZM22.9324 24.636C21.819 20.3415 23.3362 16.8846 24.4597 15.1437C25.5144 13.5095 26.7117 12.5394 27.2234 12.1482C28.3047 11.3216 29.2636 10.8971 29.4616 10.8081C29.815 10.6493 30.0802 10.5542 30.1789 10.5195C30.2982 10.4776 30.37 10.456 30.3756 10.4543C30.3827 10.4521 30.2914 10.4794 30.0737 10.534C29.867 10.5858 29.5945 10.6502 29.2556 10.7252C27.8691 11.0317 25.7785 11.4243 23.3679 11.7796C18.1689 12.5458 13.1738 12.8806 10.5805 12.5473C10.0303 12.4766 10.0682 12.4285 10.4662 12.5792C10.7516 12.6873 12.3897 13.3237 13.8851 15.227C15.7345 17.5807 16.2983 20.5022 15.8566 22.9827C15.6719 24.0199 15.3529 24.7609 15.149 25.1639C15.0426 25.374 14.9507 25.5256 14.8914 25.6176C14.8317 25.71 14.7954 25.757 14.7946 25.758C14.7935 25.7595 14.8197 25.7255 14.8813 25.6559C14.9427 25.5866 15.0329 25.4891 15.1577 25.3632C15.4105 25.1079 15.7734 24.7678 16.2749 24.341C17.2882 23.4784 18.7266 22.3807 20.7065 21.0317C24.6775 18.3259 30.4221 14.8827 38.4561 10.5766L27.1185 -10.5766C18.6741 -6.05059 12.1232 -2.16159 7.19252 1.19802C2.48313 4.40683 -1.56259 7.66889 -4.20896 11.0998C-5.53831 12.8232 -7.1749 15.4236 -7.77173 18.7752C-8.46171 22.6499 -7.59378 26.7364 -4.9865 30.0547C-2.73317 32.9226 0.116593 34.3233 1.96871 35.0245C3.93347 35.7684 5.8933 36.1423 7.52136 36.3515C13.6412 37.138 21.462 36.3197 26.8671 35.5231C29.7585 35.097 32.417 34.6058 34.4372 34.1591C35.4094 33.9442 36.4312 33.6964 37.3219 33.4271C37.6929 33.3149 38.4625 33.0752 39.2981 32.6998C39.6148 32.5575 40.6621 32.0845 41.8001 31.2145C42.3401 30.8016 43.5578 29.8112 44.6248 28.158C45.7605 26.3981 47.2819 22.9236 46.1643 18.6128L22.9324 24.636ZM21.6668 4.5093L34.0786 35.1185L56.3197 26.0999L43.9079 -4.5093L21.6668 4.5093Z" fill="url(#paint0_linear_3_939)" mask="url(#path-1-inside-1_3_939)"/>
</g>
<defs>
<filter id="filter0_d_3_939" x="0" y="0" width="51" height="48" filterUnits="userSpaceOnUse" color-interpolation-filters="sRGB">
<feFlood flood-opacity="0" result="BackgroundImageFix"/>
<feColorMatrix in="SourceAlpha" type="matrix" values="0 0 0 0 0 0 0 0 0 0 0 0 0 0 0 0 0 0 127 0" result="hardAlpha"/>
<feOffset dy="4"/>
<feGaussianBlur stdDeviation="2"/>
<feComposite in2="hardAlpha" operator="out"/>
<feColorMatrix type="matrix" values="0 0 0 0 0 0 0 0 0 0 0 0 0 0 0 0 0 0 0.25 0"/>
<feBlend mode="normal" in2="BackgroundImageFix" result="effect1_dropShadow_3_939"/>
<feBlend mode="normal" in="SourceGraphic" in2="effect1_dropShadow_3_939" result="shape"/>
</filter>
<linearGradient id="paint0_linear_3_939" x1="30.5806" y1="5.51714" x2="30.5806" y2="39.9997" gradientUnits="userSpaceOnUse">
<stop stop-color="#E63946"/>
<stop offset="1" stop-color="#1D3557"/>
</linearGradient>
</defs>
</svg>
