<svg width="102" height="26" viewBox="0 0 102 26" fill="none" xmlns="http://www.w3.org/2000/svg">
<path fill-rule="evenodd" clip-rule="evenodd" d="M0.606896 1.03465V14.7358H2.77701V9.58638H5.5908C6.51034 9.58638 7.31954 9.41473 8.01839 9.07144C8.71724 8.72814 9.26283 8.23772 9.65517 7.60017C10.0598 6.96262 10.2621 6.20247 10.2621 5.31971C10.2621 4.42469 10.0659 3.65841 9.67356 3.02086C9.28123 2.37105 8.7295 1.88063 8.01839 1.5496C7.31954 1.2063 6.51034 1.03465 5.5908 1.03465H0.606896ZM5.64598 7.65534H2.77701V2.96569H5.64598C6.1364 2.96569 6.56552 3.06377 6.93333 3.25994C7.30115 3.44385 7.58927 3.71358 7.7977 4.06914C8.00613 4.41243 8.11034 4.82316 8.11034 5.30132C8.11034 5.77948 8.00613 6.19634 7.7977 6.5519C7.58927 6.89519 7.30115 7.16492 6.93333 7.36109C6.56552 7.55726 6.1364 7.65534 5.64598 7.65534ZM11.9445 1.03465V14.7358H20.9744V12.8048H14.1147V8.83236H20.6066V6.90132H14.1147V2.96569H20.9744V1.03465H11.9445ZM22.4381 1.03465V14.7358H24.6082V9.58638H27.2811L30.1806 14.7358H32.645L29.4818 9.21856C30.2787 8.91205 30.9101 8.42163 31.376 7.7473C31.8542 7.07297 32.0933 6.26377 32.0933 5.31971C32.0933 4.42469 31.8909 3.65841 31.4864 3.02086C31.094 2.37105 30.5484 1.88063 29.8496 1.5496C29.1507 1.2063 28.3415 1.03465 27.422 1.03465H22.4381ZM27.4588 7.65534H24.6082V2.96569H27.4588C27.9614 2.96569 28.3967 3.06377 28.7645 3.25994C29.1323 3.44385 29.4143 3.71358 29.6105 4.06914C29.8189 4.41243 29.9231 4.82316 29.9231 5.30132C29.9231 5.77948 29.8189 6.19634 29.6105 6.5519C29.4143 6.89519 29.1323 7.16492 28.7645 7.36109C28.3967 7.55726 27.9614 7.65534 27.4588 7.65534ZM33.9194 1.03465V14.7358H36.0895V9.58638H38.9033C39.8228 9.58638 40.632 9.41473 41.3309 9.07144C42.0297 8.72814 42.5753 8.23772 42.9677 7.60017C43.3723 6.96262 43.5746 6.20247 43.5746 5.31971C43.5746 4.42469 43.3784 3.65841 42.9861 3.02086C42.5937 2.37105 42.042 1.88063 41.3309 1.5496C40.632 1.2063 39.8228 1.03465 38.9033 1.03465H33.9194ZM38.9585 7.65534H36.0895V2.96569H38.9585C39.4489 2.96569 39.878 3.06377 40.2458 3.25994C40.6136 3.44385 40.9018 3.71358 41.1102 4.06914C41.3186 4.41243 41.4228 4.82316 41.4228 5.30132C41.4228 5.77948 41.3186 6.19634 41.1102 6.5519C40.9018 6.89519 40.6136 7.16492 40.2458 7.36109C39.878 7.55726 39.4489 7.65534 38.9585 7.65534ZM47.6662 14.3128C48.4632 14.7419 49.3705 14.9565 50.3881 14.9565C51.418 14.9565 52.3252 14.7419 53.1099 14.3128C53.9068 13.8837 54.526 13.2952 54.9674 12.5473C55.4088 11.7994 55.6295 10.9473 55.6295 9.99098V1.03465H53.4777V9.89902C53.4777 10.4998 53.3429 11.0331 53.0731 11.499C52.8157 11.9649 52.454 12.3266 51.9881 12.5841C51.5344 12.8416 51.0011 12.9703 50.3881 12.9703C49.7873 12.9703 49.254 12.8416 48.7881 12.5841C48.3344 12.3266 47.9728 11.9649 47.703 11.499C47.4455 11.0331 47.3168 10.4998 47.3168 9.89902V1.03465H45.1467V9.99098C45.1467 10.9473 45.3674 11.7994 45.8088 12.5473C46.2624 13.2952 46.8816 13.8837 47.6662 14.3128ZM60.2072 14.4783C60.9428 14.7971 61.7397 14.9565 62.598 14.9565C63.5175 14.9565 64.3267 14.791 65.0256 14.4599C65.7244 14.1166 66.27 13.6507 66.6624 13.0622C67.0669 12.4737 67.2692 11.7994 67.2692 11.0393C67.2692 10.1197 66.9934 9.35343 66.4417 8.7404C65.8899 8.11511 65.0685 7.63695 63.9773 7.30592L61.5865 6.5519C61.0102 6.38025 60.5811 6.12278 60.2991 5.77948C60.0171 5.43619 59.8761 5.04385 59.8761 4.60247C59.8761 4.22239 59.9681 3.89136 60.152 3.60937C60.3482 3.31511 60.6179 3.09442 60.9612 2.9473C61.3045 2.78791 61.703 2.70822 62.1566 2.70822C62.9045 2.70822 63.5604 2.90439 64.1244 3.29672C64.7007 3.68906 65.1237 4.24692 65.3934 4.97029L67.1957 4.17948C66.975 3.51741 66.6194 2.93504 66.129 2.43236C65.6509 1.92967 65.0746 1.53734 64.4003 1.25534C63.726 0.961091 62.9781 0.813965 62.1566 0.813965C61.2984 0.813965 60.5321 0.979482 59.8578 1.31052C59.1957 1.64155 58.6746 2.10132 58.2945 2.68983C57.9145 3.26607 57.7244 3.9404 57.7244 4.71282C57.7244 5.59557 57.9942 6.36799 58.5336 7.03006C59.0731 7.67987 59.8578 8.16416 60.8876 8.48293L63.4624 9.29213C64.0141 9.46377 64.4309 9.69672 64.7129 9.99098C64.9949 10.2852 65.1359 10.6837 65.1359 11.1864C65.1359 11.5542 65.0317 11.8791 64.8233 12.1611C64.6271 12.4431 64.3451 12.6638 63.9773 12.8232C63.6095 12.9703 63.1804 13.0438 62.6899 13.0438C61.8562 13.0438 61.1206 12.817 60.483 12.3634C59.8455 11.9098 59.3612 11.2599 59.0302 10.414L57.1911 11.1864C57.4363 11.922 57.8164 12.5718 58.3313 13.1358C58.8463 13.6998 59.4715 14.1473 60.2072 14.4783ZM69.1536 1.03465V14.7358H77.2455V12.8048H71.3237V1.03465H69.1536ZM82.1203 1.03465L77.3019 14.7358H79.6191L80.6858 11.6645H86.2582L87.3065 14.7358H89.6237L84.8053 1.03465H82.1203ZM85.5961 9.73351H81.3111L83.4697 3.4509L85.5961 9.73351ZM90.6974 1.03465V14.7358H96.4905C97.9495 14.7358 99.0959 14.368 99.9296 13.6324C100.776 12.8967 101.199 11.8852 101.199 10.5979C101.199 10.0829 101.107 9.59251 100.923 9.12661C100.751 8.66071 100.469 8.24385 100.077 7.87603C99.8804 7.68583 99.6549 7.51252 99.4002 7.3561C99.6948 7.12714 99.9325 6.8652 100.114 6.57029C100.457 6.01856 100.628 5.41167 100.628 4.7496C100.628 3.98944 100.463 3.33351 100.132 2.78178C99.8009 2.2178 99.3227 1.78868 98.6974 1.49442C98.0721 1.18791 97.3304 1.03465 96.4721 1.03465H90.6974ZM96.656 12.8048H92.8675V8.40937H96.656C97.3794 8.40937 97.9557 8.61167 98.3848 9.01626C98.8139 9.4086 99.0285 9.94193 99.0285 10.6163C99.0285 11.2783 98.8139 11.8117 98.3848 12.2163C97.9557 12.6086 97.3794 12.8048 96.656 12.8048ZM96.5273 6.49672H92.8675V2.91052H96.5273C97.1158 2.91052 97.5878 3.06377 97.9434 3.37029C98.299 3.6768 98.4767 4.10592 98.4767 4.65764C98.4767 5.20937 98.299 5.65688 97.9434 6.00017C97.5878 6.33121 97.1158 6.49672 96.5273 6.49672ZM0 18.8048V25.6553H0.735632V20.2115L4.50575 25.6553H5.14942V18.8048H4.41379V24.2141L0.643678 18.8048H0ZM7.20302 25.5266C7.48501 25.686 7.79765 25.7657 8.14095 25.7657C8.50876 25.7657 8.83367 25.6737 9.11566 25.4898C9.29702 25.3716 9.44414 25.2254 9.55704 25.0513V25.6553H10.2467V20.7266H9.55704V23.6599C9.55704 23.9542 9.50187 24.2086 9.39152 24.4232C9.28118 24.6316 9.12792 24.794 8.93175 24.9105C8.73558 25.0209 8.51183 25.076 8.26049 25.076C8.00915 25.076 7.78539 25.0209 7.58922 24.9105C7.39919 24.8002 7.24899 24.6469 7.13865 24.4507C7.03443 24.2484 6.98233 24.0155 6.98233 23.7519V20.7266H6.29267V23.8347C6.29267 24.2147 6.37237 24.5519 6.53175 24.8461C6.69727 25.1343 6.92102 25.3611 7.20302 25.5266ZM11.8581 25.4071C12.2137 25.6461 12.6275 25.7657 13.0995 25.7657C13.4428 25.7657 13.7462 25.7075 14.0098 25.591C14.2734 25.4684 14.4788 25.2998 14.6259 25.0852C14.7792 24.8707 14.8558 24.6285 14.8558 24.3588C14.8558 24.0278 14.7424 23.7396 14.5156 23.4944C14.2949 23.2492 13.9853 23.0684 13.5869 22.9519L12.7685 22.7128C12.6826 22.6883 12.5815 22.6515 12.465 22.6025C12.3547 22.5534 12.2566 22.4799 12.1708 22.3818C12.0849 22.2837 12.042 22.1519 12.042 21.9864C12.042 21.7718 12.1248 21.594 12.2903 21.453C12.4558 21.312 12.6765 21.2416 12.9524 21.2416C13.2344 21.2416 13.4888 21.3212 13.7156 21.4806C13.9485 21.6339 14.1263 21.8484 14.2489 22.1243L14.8374 21.8484C14.6964 21.4622 14.4543 21.1619 14.111 20.9473C13.7738 20.7266 13.3968 20.6163 12.98 20.6163C12.6734 20.6163 12.3945 20.6745 12.1432 20.791C11.8918 20.9074 11.6926 21.073 11.5455 21.2875C11.3983 21.5021 11.3248 21.7534 11.3248 22.0416C11.3248 22.3481 11.4259 22.6178 11.6282 22.8507C11.8305 23.0837 12.1585 23.2645 12.6121 23.3933L13.3202 23.5956C13.4183 23.6201 13.5317 23.6599 13.6604 23.7151C13.7892 23.7703 13.9026 23.85 14.0006 23.9542C14.0987 24.0523 14.1478 24.1871 14.1478 24.3588C14.1478 24.5917 14.0466 24.7818 13.8443 24.9289C13.642 25.0699 13.3938 25.1404 13.0995 25.1404C12.793 25.1404 12.511 25.0515 12.2535 24.8737C12.0022 24.696 11.806 24.4569 11.665 24.1565L11.0857 24.4324C11.2451 24.8431 11.5026 25.168 11.8581 25.4071ZM16.3803 25.591C16.6255 25.7075 16.9045 25.7657 17.2171 25.7657C17.5052 25.7657 17.7688 25.7228 18.0079 25.637C18.2531 25.545 18.4646 25.4255 18.6424 25.2783C18.7655 25.1757 18.8667 25.0662 18.9458 24.9499V25.6553H19.6355V22.2714C19.6355 21.9465 19.5558 21.6615 19.3964 21.4163C19.2432 21.1649 19.0255 20.9688 18.7435 20.8278C18.4677 20.6868 18.1489 20.6163 17.7872 20.6163C17.5114 20.6163 17.2447 20.6684 16.9872 20.7726C16.7297 20.8707 16.4999 21.0055 16.2976 21.1772C16.1014 21.3488 15.9573 21.5389 15.8654 21.7473L16.4907 22.0875C16.601 21.8484 16.7696 21.6553 16.9964 21.5082C17.2232 21.355 17.4868 21.2783 17.7872 21.2783C18.1305 21.2783 18.4094 21.3703 18.624 21.5542C18.8386 21.7381 18.9458 21.9772 18.9458 22.2714V22.5258L17.1619 22.8232C16.8002 22.8845 16.5029 22.9887 16.27 23.1358C16.037 23.2829 15.8654 23.4638 15.755 23.6783C15.6447 23.8868 15.5895 24.1197 15.5895 24.3772C15.5895 24.6469 15.66 24.886 15.801 25.0944C15.942 25.3029 16.1351 25.4684 16.3803 25.591ZM18.9458 23.1511V23.522C18.9458 23.8224 18.8753 24.0952 18.7343 24.3404C18.5933 24.5856 18.3972 24.7818 18.1458 24.9289C17.8945 25.0699 17.6002 25.1404 17.2631 25.1404C16.9872 25.1404 16.7604 25.0638 16.5826 24.9105C16.411 24.7573 16.3251 24.5703 16.3251 24.3496C16.3251 24.1228 16.4018 23.9266 16.555 23.7611C16.7144 23.5956 16.9719 23.4822 17.3274 23.4209L18.9458 23.1511ZM20.7782 20.7266V25.6553H21.4678V22.722C21.4678 22.4278 21.523 22.1764 21.6333 21.968C21.7437 21.7534 21.8969 21.591 22.0931 21.4806C22.2893 21.3642 22.513 21.3059 22.7644 21.3059C23.0157 21.3059 23.2364 21.3642 23.4264 21.4806C23.6226 21.591 23.7728 21.7504 23.877 21.9588C23.9874 22.1672 24.0425 22.4216 24.0425 22.722V25.6553H24.7322V22.4553C24.7322 22.1059 24.6494 21.7933 24.4839 21.5174C24.3245 21.2354 24.1038 21.0147 23.8218 20.8553C23.546 20.696 23.2333 20.6163 22.8839 20.6163C22.5161 20.6163 22.1912 20.7082 21.9092 20.8921C21.7296 21.0119 21.5825 21.1602 21.4678 21.3371V20.7266H20.7782ZM26.6379 25.3243C26.8769 25.5818 27.2172 25.7105 27.6585 25.7105C27.7137 25.7105 27.7873 25.7044 27.8792 25.6921C27.9712 25.686 28.0539 25.6737 28.1275 25.6553V25.0393C28.0785 25.0454 28.0202 25.0515 27.9528 25.0576C27.8854 25.0638 27.8271 25.0668 27.7781 25.0668C27.5758 25.0668 27.4133 25.0301 27.2907 24.9565C27.1743 24.8829 27.0915 24.7848 27.0425 24.6622C26.9934 24.5335 26.9689 24.3864 26.9689 24.2209V21.4163H28.0539V20.7266H26.9689V19.5864H26.2792V20.0002C26.2792 20.2086 26.2179 20.3833 26.0953 20.5243C25.9727 20.6592 25.8072 20.7266 25.5988 20.7266H25.3689V21.4163H26.2792V24.2209C26.2792 24.699 26.3988 25.0668 26.6379 25.3243ZM29.5613 25.591C29.8066 25.7075 30.0855 25.7657 30.3981 25.7657C30.6863 25.7657 30.9499 25.7228 31.1889 25.637C31.4341 25.545 31.6456 25.4255 31.8234 25.2783C31.9466 25.1757 32.0477 25.0662 32.1269 24.9499V25.6553H32.8165V22.2714C32.8165 21.9465 32.7368 21.6615 32.5774 21.4163C32.4242 21.1649 32.2066 20.9688 31.9246 20.8278C31.6487 20.6868 31.3299 20.6163 30.9682 20.6163C30.6924 20.6163 30.4257 20.6684 30.1682 20.7726C29.9108 20.8707 29.6809 21.0055 29.4786 21.1772C29.2824 21.3488 29.1384 21.5389 29.0464 21.7473L29.6717 22.0875C29.782 21.8484 29.9506 21.6553 30.1774 21.5082C30.4043 21.355 30.6679 21.2783 30.9682 21.2783C31.3115 21.2783 31.5905 21.3703 31.805 21.5542C32.0196 21.7381 32.1269 21.9772 32.1269 22.2714V22.5258L30.343 22.8232C29.9813 22.8845 29.684 22.9887 29.451 23.1358C29.2181 23.2829 29.0464 23.4638 28.9361 23.6783C28.8257 23.8868 28.7705 24.1197 28.7705 24.3772C28.7705 24.6469 28.841 24.886 28.982 25.0944C29.123 25.3029 29.3161 25.4684 29.5613 25.591ZM32.1269 23.1511V23.522C32.1269 23.8224 32.0564 24.0952 31.9154 24.3404C31.7744 24.5856 31.5782 24.7818 31.3269 24.9289C31.0755 25.0699 30.7813 25.1404 30.4441 25.1404C30.1682 25.1404 29.9414 25.0638 29.7636 24.9105C29.592 24.7573 29.5062 24.5703 29.5062 24.3496C29.5062 24.1228 29.5828 23.9266 29.7361 23.7611C29.8954 23.5956 30.1529 23.4822 30.5085 23.4209L32.1269 23.1511ZM33.9592 20.7266V25.6553H34.6488V22.6209C34.6488 22.2163 34.7561 21.9036 34.9707 21.6829C35.1852 21.4622 35.4703 21.3519 35.8259 21.3519H36.258V20.6622H35.9454C35.6082 20.6622 35.3201 20.7297 35.081 20.8645C34.9029 20.9677 34.7589 21.0994 34.6488 21.2599V20.7266H33.9592ZM37.3789 25.591C37.6241 25.7075 37.903 25.7657 38.2157 25.7657C38.5038 25.7657 38.7674 25.7228 39.0065 25.637C39.2517 25.545 39.4632 25.4255 39.6409 25.2783C39.7641 25.1757 39.8652 25.0662 39.9444 24.9499V25.6553H40.6341V22.2714C40.6341 21.9465 40.5544 21.6615 40.395 21.4163C40.2417 21.1649 40.0241 20.9688 39.7421 20.8278C39.4662 20.6868 39.1475 20.6163 38.7858 20.6163C38.5099 20.6163 38.2432 20.6684 37.9858 20.7726C37.7283 20.8707 37.4984 21.0055 37.2961 21.1772C37.1 21.3488 36.9559 21.5389 36.8639 21.7473L37.4892 22.0875C37.5996 21.8484 37.7682 21.6553 37.995 21.5082C38.2218 21.355 38.4854 21.2783 38.7858 21.2783C39.1291 21.2783 39.408 21.3703 39.6226 21.5542C39.8371 21.7381 39.9444 21.9772 39.9444 22.2714V22.5258L38.1605 22.8232C37.7988 22.8845 37.5015 22.9887 37.2685 23.1358C37.0356 23.2829 36.8639 23.4638 36.7536 23.6783C36.6432 23.8868 36.5881 24.1197 36.5881 24.3772C36.5881 24.6469 36.6586 24.886 36.7996 25.0944C36.9406 25.3029 37.1337 25.4684 37.3789 25.591ZM39.9444 23.1511V23.522C39.9444 23.8224 39.8739 24.0952 39.7329 24.3404C39.5919 24.5856 39.3957 24.7818 39.1444 24.9289C38.8931 25.0699 38.5988 25.1404 38.2616 25.1404C37.9858 25.1404 37.759 25.0638 37.5812 24.9105C37.4095 24.7573 37.3237 24.5703 37.3237 24.3496C37.3237 24.1228 37.4003 23.9266 37.5536 23.7611C37.713 23.5956 37.9705 23.4822 38.326 23.4209L39.9444 23.1511Z" fill="url(#paint0_linear_3_940)"/>
<defs>
<linearGradient id="paint0_linear_3_940" x1="-4.8322" y1="28.529" x2="101.199" y2="13.2898" gradientUnits="userSpaceOnUse">
<stop stop-color="#D9D9D9"/>
<stop offset="0.272" stop-color="#1D3557"/>
<stop offset="0.94" stop-color="#E63946"/>
</linearGradient>
</defs>
</svg>
