<svg width="106" height="107" viewBox="0 0 106 107" fill="none" xmlns="http://www.w3.org/2000/svg">
<rect opacity="0.14" x="-0.000488281" y="0.356934" width="106" height="106" rx="30" fill="#486284"/>
<g clip-path="url(#clip0_2_235)">
<path d="M75.4995 73.5969C75.4995 74.5704 74.6951 75.3569 73.6995 75.3569H32.2995C31.3039 75.3569 30.4995 74.5704 30.4995 73.5969V50.4969H75.4995V73.5969ZM32.2995 35.3169H41.7495V31.7969C41.7495 31.5549 41.952 31.3569 42.1995 31.3569H45.3495C45.597 31.3569 45.7995 31.5549 45.7995 31.7969V35.3169H60.1995V31.7969C60.1995 31.5549 60.402 31.3569 60.6495 31.3569H63.7995C64.047 31.3569 64.2495 31.5549 64.2495 31.7969V35.3169H73.6995C74.6951 35.3169 75.4995 36.1034 75.4995 37.0769V46.7569H30.4995V37.0769C30.4995 36.1034 31.3039 35.3169 32.2995 35.3169Z" fill="#1D3557"/>
</g>
<defs>
<clipPath id="clip0_2_235">
<rect width="45" height="44" fill="white" transform="matrix(-1 0 0 1 75.4995 31.3569)"/>
</clipPath>
</defs>
</svg>
